<?xml version="1.0" encoding="UTF-8" standalone="no"?>
<!DOCTYPE svg PUBLIC "-//W3C//DTD SVG 20010904//EN" "http://www.w3.org/TR/2001/REC-SVG-20010904/DTD/svg10.dtd">
<svg version="1.0" xmlns="http://www.w3.org/2000/svg" width="240.000000pt" height="240.000000pt" viewBox="0 0 240.000000 240.000000" preserveAspectRatio="xMidYMid meet">
<metadata>
Created by potrace 1.16, written by Peter Selinger 2001-2019
</metadata>
<g transform="translate(0.000000,240.000000) scale(0.100000,-0.100000)" fill="#000000" stroke="none">
<path d="M634 2262 c-147 -78 -283 -191 -378 -316 l-56 -72 0 -674 0 -674 56 -72 c96 -126 242 -247 387 -320 l67 -34 0 445 0 445 495 0 495 0 0 -440 c0 -242 2 -440 5 -440 15 0 129 64 191 109 101 71 185 151 254 243 l60 79 0 659 0 659 -60 79 c-69 92 -153 172 -254 243 -62 45 -176 109 -191 109 -3 0 -5 -198 -5 -440 l0 -440 -495 0 -495 0 -2 444 -3 445 -71 -37z"/>
<path d="M940 1905 l0 -395 280 0 280 0 0 65 0 65 -205 0 -205 0 0 330 0 330 -75 0 -75 0 0 -395z"/>
<path d="M1076 854 c-98 -36 -146 -104 -146 -207 0 -53 5 -71 26 -103 47 -69 96 -95 253 -135 135 -35 165 -52 169 -100 2 -28 -3 -40 -28 -64 -28 -27 -38 -30 -108 -33 -64 -2 -83 1 -110 17 -35 22 -72 75 -72 104 0 19 -20 21 -107 11 -49 -6 -53 -9 -53 -34 0 -54 33 -124 81 -172 64 -64 123 -81 267 -76 93 3 114 7 165 31 83 41 120 98 125 194 9 160 -54 220 -291 279 -115 29 -157 52 -157 88 0 40 34 60 109 64 84 5 124 -13 142 -63 l13 -35 78 0 78 0 0 35 c0 83 -60 162 -147 195 -66 24 -226 27 -287 4z"/>
</g>
</svg>